<svg xmlns="http://www.w3.org/2000/svg" version="1.1" xmlns:xlink="http://www.w3.org/1999/xlink" xmlns:svgjs="http://svgjs.dev/svgjs" viewBox="0 0 800 800"><g stroke-width="2" stroke="#cfd89c34" fill="none"><path d="M665.8524365057768 277.2962747209947C694.7112340616535 349.22201798110484 651.4980409069066 511.52422195755037 589.2386508383237 591.4459100781768C526.9792607697407 671.3675981988032 430.55277235673987 688.3193038290427 367.0073641765787 660.9203777000015C303.4619559964174 633.5214515709604 334.617465904695 532.6567660896587 284.2206915735497 459.93106465877895C233.82391724240438 387.20536322789906 128.4421912921755 380.956970583586 125.10284738708145 311.83701083177857C121.76350348198736 242.7170510799711 200.3556793326324 141.8291471005473 268.19184082909794 128.1552578501034C336.0280023255634 114.48136859965945 367.87046513747475 215.13129724821215 450.71642257011615 246.20234242964773C533.5623800027575 277.2733876110833 636.9936389499003 205.37053146088454 665.8524365057768 277.2962747209947C694.7112340616535 349.22201798110484 651.4980409069066 511.52422195755037 589.2386508383237 591.4459100781768 "></path><path d="M653.7682306849355 282.8736973588543C681.3152647155449 351.53008865259585 640.0663076132865 506.45491972102104 580.6368898205483 582.7438038361645C521.2074720278101 659.0326879513078 429.16400581540006 675.2138615074456 368.5070252797916 649.0603411115426C307.85004474418315 622.9068207156397 337.58939511117546 526.6268936653064 289.4833832496277 457.20690593583015C241.3773713880799 387.7869182063539 140.78572389013414 381.82254340950965 137.59816834436253 315.84440001005714C134.41061279859093 249.86625661060452 209.4304170196612 153.56416644842727 274.18311662992375 140.51181761845805C338.93581624018634 127.45946878848883 369.3308943788288 223.53440068028914 448.41112647362297 253.19312562620496C527.491358568417 282.8518505721207 626.2211966543259 214.21730606511278 653.7682306849355 282.8736973588543C681.3152647155449 351.53008865259585 640.0663076132865 506.45491972102104 580.6368898205483 582.7438038361645 "></path><path d="M641.6840553816721 288.45115051429207C667.9193258870146 353.838189841665 628.6346048372446 501.38564800206996 572.0351593203511 574.0417281117304C515.4357138034575 646.6978082213907 427.7752697916385 662.1084497034267 370.0067169005828 637.2003350406619C312.23816400952717 612.2922203778974 340.56135483523406 520.5970517585322 294.7461054432838 454.4827777304595C248.93085605133354 388.368503702387 153.1292870056709 382.68814675301144 150.09351981922174 319.85181970591384C147.05775263277258 257.0154926588161 218.50518522426808 165.29921631388532 280.1744229483277 152.86840790439084C341.8436606723873 140.43759949489635 370.7913541377611 231.9375346299443 446.1058608947078 260.1839393403403C521.4203676516546 288.43034405073627 615.4487848763298 223.0641111869192 641.6840553816721 288.45115051429207C667.9193258870146 353.838189841665 628.6346048372446 501.38564800206996 572.0351593203511 574.0417281117304 "></path><path d="M629.5998343020417 294.0286036697298C654.5233412821169 356.146291030734 617.2028562848355 496.31637628311887 563.4333830437866 565.3396523872962C509.66390980273775 634.3629284914734 426.38648799150974 649.0030378994077 371.50636274500675 625.3403289697812C316.62623749850394 601.6776200401547 343.53326878292546 514.5672098517579 300.00878186057275 451.7586495250889C256.48429493822 388.95008919841996 165.47280434484048 383.5537500965132 162.58882551771381 323.8592394017704C159.7048466905871 264.1647287070276 227.5799076525078 177.03426617934343 286.1656834903644 165.22499819032367C344.751459328221 153.41573020130386 372.25176812032623 240.34066857959942 443.80054953942556 267.1747530544756C515.3493309585249 294.0088375293518 604.6763273219665 231.91091630872558 629.5998343020417 294.0286036697298C654.5233412821169 356.146291030734 617.2028562848355 496.31637628311887 563.4333830437866 565.3396523872962 "></path><path d="M617.5156132224113 299.6060415663785C641.1273566772193 358.4543769610141 605.7711077324263 491.2470893053786 554.8316067672222 556.6375614040729C503.892105802018 622.0280335027672 424.99770619138087 635.8976108365996 373.00600858943085 613.4803076401113C321.0143109874807 591.0630044436232 346.505182730617 508.5373526861945 305.2714582778617 449.0345060609293C264.03773382510644 389.53165943566387 177.81632168401006 384.41933818122584 175.08413121620583 327.866643838838C172.3519407484016 271.31394949645005 236.65463008074755 188.76930078601242 292.15694403240116 177.5815732174674C347.65925798405476 166.39384564892237 373.71218210289123 248.74378727046548 441.4952381841433 274.16555150982185C509.2782942653953 299.5873157491783 593.903869767603 240.75770617174288 617.5156132224113 299.6060415663785C641.1273566772193 358.4543769610141 605.7711077324263 491.2470893053786 554.8316067672222 556.6375614040729 "></path><path d="M605.4314379191479 305.1834642042381C627.7314178486889 360.762447632505 594.3394049563844 486.1777870688493 546.2298762670249 547.9354551620606C498.12034757766537 609.693123255272 423.6089701676193 622.7921685150025 374.5057002102219 601.6202710516525C325.4024302528246 580.4483735883025 349.4771424546755 502.50748026184215 310.5341804715178 446.3103473379804C271.5912184883601 390.1132144141187 190.15988479954683 385.2849110071496 187.57948269106504 331.8740330171165C184.99908058258325 278.4631550270835 245.72939828535442 200.5043201338924 298.1482503508051 189.93813298582205C350.56710241625575 179.37194583775175 375.17264186182354 257.14689070254246 439.18997260522826 281.1563347063791C503.2073033486329 305.1657787102157 583.1314579896069 249.60448077597113 605.4314379191479 305.1834642042381C627.7314178486889 360.762447632505 594.3394049563844 486.1777870688493 546.2298762670249 547.9354551620606 "></path><path d="M593.3472320983064 310.76091735967583C614.3354485025804 363.0705488215741 582.9076716627644 481.1085153498982 537.6281152492496 539.2333794376265C492.3485588357348 597.3582435253547 422.2202036262795 609.6867567109834 376.00536131343506 589.7602649807717C329.7905190005905 569.83377325056 352.44907166115604 496.47763835506794 315.7968721475958 443.5862191326098C279.1446726340356 390.6947999101517 202.50341739750547 386.1505143506513 200.07480364834618 335.8814527129732C197.64618989918682 285.612391075295 254.80413597238322 212.23936999935046 304.1395261516309 202.2947232717549C353.47491633087856 192.35007654415926 376.6330711031776 265.55002465219764 436.8846765087351 288.14714842051444C497.13628191429234 310.7442721888312 572.3590156940326 258.45128589777755 593.3472320983064 310.76091735967583C614.3354485025804 363.0705488215741 582.9076716627644 481.1085153498982 537.6281152492496 539.2333794376265 "></path><path d="M581.263011018676 316.3383705151136C600.9394638976828 365.37865001064324 571.4759231103553 476.039243630947 529.0263389726852 530.5313037131923C486.576754835015 585.0233637954375 420.83142182615074 596.5813449069644 377.505007157859 577.9002589098909C334.1785924895672 559.2191729128175 355.42098560884745 490.44779644829373 321.0595485648847 440.86209092723925C286.698111520922 391.2763854061848 214.84693473667505 387.0161176941531 212.5701093468382 339.88887240882985C210.29328395700134 292.76162712350657 263.87885840062296 223.97441986480857 310.13078669366763 214.65131355768767C356.38271498671236 205.32820725056678 378.0934850857427 273.95315860185275 434.5793651534527 295.13796213464974C491.06524522116274 316.32276566744673 561.5865581396693 267.2980910195839 581.263011018676 316.3383705151136C600.9394638976828 365.37865001064324 571.4759231103553 476.039243630947 529.0263389726852 530.5313037131923 "></path><path d="M569.1788204566237 321.91580841176227C587.5435098103633 367.6867359409233 560.0442050755244 470.96995665320674 520.4245932136989 521.8292127299691C480.8049813518734 572.6884688067314 419.4426705436001 583.4759178441564 379.0046835198611 566.0402375802212C338.5666964961221 548.6045573162859 358.392930074117 484.41793928273034 326.3222554997518 438.1379474630795C294.25158092538663 391.8579556434287 227.19048259342276 387.8817057788658 225.06544556290834 343.89627684589743C222.94040853239392 299.91084791292906 272.95361134644077 235.70945447147756 316.1220777532825 227.0078885848314C359.2905441601242 218.30632269818528 379.55392958588595 282.3562772927188 432.2740843157486 302.128760589996C484.99423904561127 321.9012438872732 550.814131102884 276.1448808826012 569.1788204566237 321.91580841176227C587.5435098103633 367.6867359409233 560.0442050755244 470.96995665320674 520.4245932136989 521.8292127299691 "></path><path d="M557.0946146357822 327.49324630841096C574.1475404642547 369.9948218712033 548.6124717819043 465.9006696754666 511.8228321959234 513.1271217467458C475.0331926099427 560.3535738180251 418.0539040022603 570.3704907813485 380.5043446230742 554.1802162505514C342.95478524388795 537.9899417197544 361.36485928059744 478.38808211716696 331.5849471758298 435.4138039989198C301.8050350710621 392.4395258806726 239.5340151913814 388.74729386357853 237.56076652018947 347.90368128296507C235.5875178489975 307.06006870235154 282.02834903346957 247.44448907814655 322.1133535541083 239.36446361197517C362.19835807474703 231.28443814580373 381.0143588272401 290.7593959835849 429.96878821925543 309.11955904534227C478.92321761127073 327.4797221070997 540.0416888073097 284.9916707456186 557.0946146357822 327.49324630841096C574.1475404642547 369.9948218712033 548.6124717819043 465.9006696754666 511.8228321959234 513.1271217467458 "></path><path d="M545.0104240737298 333.0706842050596C560.7515863769354 372.30290780148334 537.1807537470734 460.83138269772644 503.2210864369372 504.4250307635226C469.261419126801 548.0186788293188 416.6651527197097 557.2650637185404 382.0040209850763 542.3201949208815C347.34288925044285 527.3753261232227 364.33680374586703 472.3582249516037 336.84765411069685 432.68966053476015C309.3585044755267 393.02109611791656 251.8775630481291 389.61288194829126 250.05610273625962 351.91108572003264C248.23464242439013 314.20928949177403 291.10310197928743 259.1795236848156 328.10464461372317 251.7210386391189C365.1061872481589 244.26255359342218 382.47480332738326 299.16251467445096 427.6635073815513 316.11035750068856C472.85221143571925 333.05820032692617 529.2692617705245 293.8384606086359 545.0104240737298 333.0706842050596C560.7515863769354 372.30290780148334 537.1807537470734 460.83138269772644 503.2210864369372 504.4250307635226 "></path><path d="M532.9262335116775 338.6481221017083C547.3556322896159 374.61099373176336 525.7490357122424 455.76209571998606 494.61934067795096 495.7229397802994C463.4896456436594 535.6837838406125 415.276401437159 544.1596366557324 383.5036973470784 530.4601735912117C351.73099325699775 516.7607105266911 367.30874821113656 466.3283677860403 342.1103610455639 429.9655170706004C316.91197387999125 393.60266635516047 264.2211109048768 390.47847003300393 262.55143895232976 355.9184901571002C260.8817669997827 321.35851028119646 300.1778549251053 270.9145582914846 334.09593567333803 264.0776136662626C368.0140164215708 257.24066904104063 383.93524782752644 307.565633365317 425.35822654384714 323.1011559560348C466.7812052601678 338.6366785467526 518.4968347337392 302.6852504716532 532.9262335116775 338.6481221017083C547.3556322896159 374.61099373176336 525.7490357122424 455.76209571998606 494.61934067795096 495.7229397802994 "></path><path d="M520.842012432047 344.2255981453296C533.9596476847182 376.9191178090161 514.3172871598333 450.6928468892186 486.0175644013865 487.0208869440488C457.7178416429397 523.3489269988789 413.8876196370302 531.0542477398969 385.0033431915023 518.6001904085145C356.1190667459745 506.1461330771323 370.28066215882797 460.2985487674497 347.37303746285284 427.24141175341333C324.4654127668777 394.1842747393771 276.5646282440464 391.3440962646893 275.04674465082184 359.9259327411405C273.5288610575972 328.5077692175916 309.252577353345 282.6496310451263 340.0871962153748 276.43422684037904C370.9218150774046 270.2188226356318 385.3956618100915 315.9687902031557 423.05291518856484 330.09199255835375C460.7101685670382 344.2151949135517 507.7243771793758 311.53207848164317 520.842012432047 344.2255981453296C533.9596476847182 376.9191178090161 514.3172871598333 450.6928468892186 486.0175644013865 487.0208869440488 "></path><path d="M508.75780661120564 349.8030055244002C520.5636783386096 379.227173221718 502.8855538662132 445.62352939390024 477.4158033836111 478.31876544324746C451.946052901009 511.0140014925946 412.49885309569044 517.9487901595107 386.5030042947154 506.7401385612666C360.50715549374036 495.53148696302253 373.2525913653085 454.2686610843082 352.63572913893086 424.5172377716756C332.0188669125532 394.7658144590429 288.90816084200503 392.20965383182386 287.5420656081029 363.9333066606299C286.1759703742008 335.65695948943596 318.3273150403738 294.38463513421715 346.0784720162006 288.79077134994463C373.8296289920274 283.1969075656721 386.8560910514456 324.37187837644365 420.74761909207166 337.08276049612186C454.63914713269764 349.7936426158001 496.9519348838015 320.3788378270824 508.75780661120564 349.8030055244002C520.5636783386096 379.227173221718 502.8855538662132 445.62352939390024 477.4158033836111 478.31876544324746 "></path><path d="M496.67360079036416 355.38045867983794C507.16770899250116 381.53527441078705 491.45382057259314 440.5542576749491 468.81404236583575 469.6166897188132C446.17426415907835 498.67912176267737 411.1100865543507 504.8433783554917 388.00266539792847 494.8801324903859C364.8952442415062 484.91688662528 376.22452057178896 448.23881917753397 357.8984208150088 421.7931095663049C339.57232105822874 395.34739995507584 301.2516934399637 393.07525717532565 300.037386565384 367.9407263564866C298.8230796908044 342.8061955376475 327.4020527274026 306.11968499967526 352.0697478170264 301.1473616358774C376.73744290665024 296.17503827207963 388.31652029279974 332.7750123260988 418.4423229955785 344.0735742102572C448.5681256983571 355.3721360944156 486.1794925882273 329.2256429488888 496.67360079036416 355.38045867983794C507.16770899250116 381.53527441078705 491.45382057259314 440.5542576749491 468.81404236583575 469.6166897188132 "></path><path d="M484.58943311649546 360.95791183527564C493.77177779336523 383.8433755998562 480.0221254259458 435.4849859559979 460.21231949503306 460.91461399437907C440.4025135641203 486.34424203276023 409.72135815998365 491.7379665514727 389.50236464811417 483.0201264195051C369.2833711362447 474.30228628753747 379.1964879252421 442.2089772707597 363.1611506380595 419.0689813609343C347.1258133508769 395.9289854511089 313.595264184895 393.94086051882744 312.5327456696378 371.94814605234325C311.47022715438055 349.95543158585906 336.476828561404 317.8547348651333 358.06106176482484 313.50395192181026C379.6452949682457 309.15316897848714 389.77698768112657 341.17814627575393 416.1370650460579 351.0643879243925C442.4971424109892 360.95062957303116 475.40708843962557 338.07244807069515 484.58943311649546 360.95791183527564C493.77177779336523 383.8433755998562 480.0221254259458 435.4849859559979 460.21231949503306 460.91461399437907 "></path><path d="M472.50519677807586 366.53533447313526C480.37577792967863 386.15144627134714 468.5903616147476 430.4156837194687 451.61052795967953 452.2125077523668C434.63069430461144 474.00933178526486 408.3325611010658 478.6325242298757 391.0019952337491 471.1600898310462C373.67142936643233 463.68765543221684 382.1683866141444 436.1791048464073 368.42381179655933 416.34482263798554C354.6792369789743 396.5105404295638 325.9387662652755 394.8064333447511 325.02803610934075 375.95553523062176C324.117305953406 357.1046371164925 345.55153573085465 329.58975421301324 364.0523070480725 325.8605116901649C382.5530783652904 322.1312691673166 391.23738640490257 349.5812497078309 413.8317384319866 358.05517112094975C436.42609045907056 366.5290925340685 464.6346156264732 346.9192226749234 472.50519677807586 366.53533447313526C480.37577792967863 386.15144627134714 468.5903616147476 430.4156837194687 451.61052795967953 452.2125077523668 "></path><path d="M460.42099858662897 372.11278381387575C466.9798162129646 388.45954364571895 457.1586359505221 425.3464081858202 443.0087745712987 443.51042821323534C428.8589131920753 461.6744482406504 406.94380218912056 465.5271086111594 392.50166396635666 459.3000799454682C378.05952574359276 453.0730512797771 385.1403234500195 430.1492591249358 373.6865111020319 413.6206906179176C362.23269875404435 397.0921221108995 338.28230649262866 395.6720328735556 337.52336469601636 379.9629511117812C336.7644228994041 364.25386935000677 354.626281047278 341.3248002637741 370.04359047829286 338.21709816140043C385.4608999093077 335.10939605902684 392.6978232756512 357.9843798427888 411.5264499648879 365.0459810203878C430.35507665412456 372.1075821979868 453.86218096029336 355.76602398203255 460.42099858662897 372.11278381387575C466.9798162129646 388.45954364571895 457.1586359505221 425.3464081858202 443.0087745712987 443.51042821323534 "></path><path d="M448.33681565397114 377.6902255252217C453.58386975503964 390.7676333906963 445.72692554508563 420.2771250227773 434.40703644170696 434.8083410447093C423.08714733832824 449.3395570666414 405.5550585359644 452.4216853630486 394.0013479577533 447.4400624304957C382.44763737954213 442.4584394979427 388.11227554468354 424.1194057740697 378.9492256662935 410.8965509684552C369.7861757879034 397.67369616284066 350.6258619787709 396.53762477296556 350.0187085414811 383.97035936354604C349.4115551041912 371.40309395412646 363.7010416224903 353.05983868514033 376.03488916730225 350.57367700324147C388.3687367121142 348.08751532134255 394.15827540518893 366.38750234835214 409.2211767565783 372.03678329043134C424.2840781079676 377.68606423251055 443.0897615529027 364.6128176597471 448.33681565397114 377.6902255252217C453.58386975503964 390.7676333906963 445.72692554508563 420.2771250227773 434.40703644170696 434.8083410447093 "></path><path d="M436.252613647827 383.26767868065946C440.1879042236284 393.07573457976537 434.2951960661629 415.20785330382614 425.8052792386288 426.10626532027516C417.3153624110948 437.0046773367242 404.1662958093219 439.31627355902964 395.5010128756636 435.5800563596149C386.83572994200523 431.8438391602002 391.0842085658613 418.08956386729545 384.21192115706873 408.17242276308457C377.3396337482762 398.2552816588737 362.9693983914268 397.40322811646735 362.51403331345944 387.9777790594027C362.05866823549206 378.552330002338 372.7757831242164 364.79488855059844 382.0261687828253 362.93026728917425C391.27655444143426 361.06564602775006 395.6187084612403 374.79063629800726 406.91588447478233 379.02759700456664C418.21306048832434 383.2645577111261 432.31732307202566 373.4596227815535 436.252613647827 383.26767868065946C440.1879042236284 393.07573457976537 434.2951960661629 415.20785330382614 425.8052792386288 426.10626532027516 "></path><path d="M424.1683811241047 388.845122299354C426.79190817463893 395.3838262320913 422.863436069662 410.1385720481318 417.2034915179726 417.4041800590978C411.54354696628326 424.6697880700639 402.7775025651014 426.21085221826746 397.0006472759958 423.720040751991C391.2237919868902 421.22922928571455 394.0561110694609 412.059712423778 389.4745861302659 405.44828502097073C384.89306119107084 398.8368576181635 375.3129042865046 398.26882192322597 375.00932756785966 391.98518921851615C374.7057508492148 385.7015565138064 381.85049410836433 376.52992887931333 388.01741788077027 375.28684803836387C394.1843416531762 374.04376719741447 397.07911099971363 383.1937607109192 404.6105616754083 386.01840118195884C412.14201235110295 388.8430416529984 421.5448540735705 382.3064183666167 424.1683811241047 388.845122299354C426.79190817463893 395.3838262320913 422.863436069662 410.1385720481318 417.2034915179726 417.4041800590978 "></path><path d="M412.08420295981847 394.4225554276311C413.3959664850856 397.69190739399977 411.4317304325971 405.06928030202 408.6017581567524 408.702084307503C405.7717858809077 412.33488831298604 401.3887636803168 413.10542038708786 398.500336035764 411.8600146539496C395.6119083912112 410.61460892081135 397.0280679324966 406.0298504898431 394.73730546289903 402.72413678843947C392.44654299330153 399.4184230870359 387.6564645410184 399.13440523956706 387.50467618169597 395.9925888872122C387.3528878223735 392.8507725348573 390.92525945194825 388.2649587176108 394.00872133815125 387.64341829713607C397.09218322435424 387.02187787666134 398.53956789762293 391.59687463341373 402.30529323547023 393.0091948689335C406.0710185733176 394.4215151044533 410.77243943455136 391.1532034612625 412.08420295981847 394.4225554276311C413.3959664850856 397.69190739399977 411.4317304325971 405.06928030202 408.6017581567524 408.702084307503 "></path></g></svg>